<?xml version="1.0" encoding="UTF-8"?>
<!DOCTYPE svg PUBLIC "-//W3C//DTD SVG 1.1//EN" "http://www.w3.org/Graphics/SVG/1.1/DTD/svg11.dtd">
<!-- Creator: CorelDRAW 2018 (64-Bit) -->
<svg xmlns="http://www.w3.org/2000/svg" xml:space="preserve" width="6.33315in" height="2.04769in" version="1.1" style="shape-rendering:geometricPrecision; text-rendering:geometricPrecision; image-rendering:optimizeQuality; fill-rule:evenodd; clip-rule:evenodd"
viewBox="0 0 1562.23 505.11"
 xmlns:xlink="http://www.w3.org/1999/xlink">
 <defs>
  <style type="text/css">
   <![CDATA[
    .fil0 {fill:#EC4899}
    .fil1 {fill:#373435;fill-rule:nonzero}
   ]]>
  </style>
 </defs>
 <g id="Layer_x0020_1">
  <metadata id="CorelCorpID_0Corel-Layer"/>
  <g id="_2158675002784">
   <path class="fil0" d="M145.81 83.58c-0.83,-3.23 1.22,-1.07 -2.48,-5.47 20.05,-2.76 40.62,-0.19 56.56,7.8 21.3,10.67 27.07,24.25 36.19,28.49 4.26,7.59 10.18,12.12 16.57,18.32 5.86,5.69 11.06,12.89 17.51,15.52 4.64,9.23 13.26,15.1 20.7,22.58 6.12,6.15 14.68,19.52 25.52,18.98 5.73,-8.45 3.97,-46.79 0.55,-55.79 0.28,-7.18 -1.11,-12.1 -2.68,-18.41 -0.66,-2.65 -1.12,-5.17 -2.22,-8.1 -2.6,-6.95 -1.31,-4.71 -5.06,-8.44 -0.78,-25.29 -40.55,-61.51 -55.17,-71.46 -31.36,-21.35 -57.81,-26.88 -102.93,-26.87 -21.46,0 -114.81,-2.49 -128.13,1.71 -13.81,4.35 -26.42,21.95 -18.04,40.97 3.28,7.44 25.97,29.51 31.84,33.84l53 52.51 25.56 25.47 40.18 40.64 40.38 40.36 42.64 42.46c9.69,15.07 24.47,20.71 21.99,52.08l-5.72 21.4c-5.04,3.56 -8.34,10.27 -14.86,15.43 -6.85,5.43 -14.24,6.54 -18.55,11.11 -18.52,-2.36 -25.7,1.71 -41.68,-7.68 -5.08,-2.99 -8.61,-5.89 -12.72,-10.58 -2.63,-3.01 -6.65,-10.47 -8.85,-11.69 -2.65,-11.74 -3.68,-18.47 -4.85,-31.74 4.95,-9.45 4.35,-15.23 11.52,-24.45 3.15,-4.04 14.52,-15.79 5.18,-23.16 -2.88,-6.21 -28.57,-32.58 -34.35,-36.67 -11.85,-8.37 -19.61,-1.71 -25.42,5.25 -5.44,6.51 -10.75,12.68 -15.21,21.64 -8.84,13 -12.11,27.23 -17.13,45.69 0.72,11 -3.02,29.77 1.57,43.09 2.31,6.71 0.24,1.85 2.37,4.72 -0.78,8.36 1.74,13.82 5.07,21.71 0.94,2.24 3.34,7.84 3.84,8.77 3.32,6.12 1.48,3.88 6.14,7.46 1.38,10 18.73,28.06 27.38,32.73 1.01,2.6 -1.09,0.03 3.04,3.98 37.15,35.55 127.74,36.75 161.38,-1.91 13.28,-8.71 39.79,-40.72 40.19,-57.74 17.33,-22.77 5.92,-66.79 -1.42,-92.26 -5.53,-17.34 -23.79,-41.21 -33.98,-47.92l-42.72 -42.54 -37.96 -38.15c-5.06,-7.49 -18.27,-21.19 -26.2,-25.5 -3.02,-7.05 -11.38,-13.32 -17.73,-19.61 -7.01,-6.95 -11.98,-14.42 -20.81,-18.58z"/>
   <path class="fil1" d="M387.55 262.94l33.8 0 0 242.17 -33.8 0 0 -242.17zm77.12 174.68c-10.7,0 -20.04,-2.55 -28.03,-7.7 -7.98,-5.15 -13.82,-12.46 -17.61,-21.86l2.32 -35.96c0,7.42 1.36,13.7 4.02,18.91 2.66,5.15 6.46,9.17 11.49,11.95 5.04,2.72 11.15,4.13 18.35,4.13 11.15,0 19.82,-3.4 25.99,-10.19 6.12,-6.79 9.17,-16.42 9.17,-28.82l0 -37.31c0,-12.57 -3.06,-22.37 -9.17,-29.33 -6.17,-6.96 -14.83,-10.47 -25.99,-10.47 -7.19,0 -13.31,1.36 -18.35,3.96 -5.04,2.66 -8.83,6.57 -11.49,11.72 -2.66,5.15 -4.02,11.32 -4.02,18.52l-3.45 -33.18c5.21,-10.08 12,-17.84 20.38,-23.33 8.44,-5.49 17.78,-8.21 28.03,-8.21 12.17,0 22.59,2.72 31.31,8.21 8.66,5.49 15.29,13.48 19.82,23.95 4.53,10.53 6.79,23.22 6.79,37.99l0 37.48c0,14.61 -2.32,27.12 -6.96,37.54 -4.64,10.36 -11.44,18.29 -20.44,23.78 -8.95,5.49 -19.65,8.21 -32.16,8.21zm173.72 0c-14.95,0 -27.69,-2.94 -38.33,-8.78 -10.59,-5.89 -18.74,-14.44 -24.29,-25.65 -5.61,-11.21 -8.38,-24.74 -8.38,-40.54l0 -28.03c0,-15.63 2.77,-28.99 8.38,-40.09 5.55,-11.1 13.7,-19.59 24.29,-25.37 10.64,-5.83 23.38,-8.72 38.33,-8.72 14.89,0 27.69,2.89 38.33,8.72 10.59,5.78 18.69,14.27 24.29,25.37 5.55,11.1 8.38,24.46 8.38,40.09l0 28.48c0,15.74 -2.83,29.16 -8.38,40.26 -5.61,11.1 -13.7,19.59 -24.29,25.48 -10.64,5.83 -23.44,8.78 -38.33,8.78zm0 -32.16c11.83,0 20.95,-3.74 27.46,-11.15 6.46,-7.42 9.68,-17.78 9.68,-31.2l0 -28.48c0,-13.42 -3.23,-23.72 -9.68,-31.03 -6.51,-7.3 -15.63,-10.98 -27.46,-10.98 -11.83,0 -21.01,3.68 -27.46,10.98 -6.46,7.3 -9.68,17.61 -9.68,31.03l0 28.48c0,13.42 3.23,23.78 9.68,31.2 6.46,7.42 15.63,11.15 27.46,11.15zm163.92 30.52c-13.93,0 -24.12,-3.85 -30.63,-11.55 -6.45,-7.7 -9.68,-19.03 -9.68,-34.09l0 -177.51 33.86 0 0 177.85c0,4.19 0.79,7.42 2.43,9.68 1.7,2.26 4.13,3.4 7.3,3.4l16.25 0 0 32.22 -19.53 0zm-58.09 -173.04l77.63 0 0 30.52 -77.63 0 0 -30.52zm227.96 0l33.63 0 0 172.19 -33.63 0 0 -172.19zm-70.04 104.69c0,12 3.11,21.35 9.23,27.92 6.12,6.57 14.78,9.91 25.99,9.91 11.04,0 19.59,-2.94 25.71,-8.83 6.06,-5.83 9.12,-14.21 9.12,-25.03l2.32 36.01c-3.57,8.49 -9.29,15.63 -17.27,21.4 -7.98,5.72 -17.72,8.61 -29.33,8.61 -19.03,0 -33.75,-6.11 -44.05,-18.35 -10.36,-12.23 -15.51,-29.44 -15.51,-51.64l0 -104.69 33.8 0 0 104.69zm155.14 -104.69l33.8 0 0 172.19 -33.8 0 0 -172.19zm104.52 67.83c0,-12.17 -3.17,-21.57 -9.51,-28.2 -6.29,-6.63 -15.12,-9.97 -26.5,-9.97 -11.1,0 -19.59,2.94 -25.65,8.83 -6,5.83 -9.06,14.1 -9.06,24.69l-3.45 -33.18c5.32,-10.36 12.23,-18.4 20.84,-24.06 8.55,-5.61 18.01,-8.44 28.42,-8.44 18.69,0 33.12,6.11 43.37,18.35 10.25,12.23 15.34,29.5 15.34,51.81l0 104.52 -33.8 0 0 -104.35zm155.77 106.85c-15.91,0 -29.56,-3 -40.82,-8.95 -11.27,-6 -19.87,-14.78 -25.76,-26.33 -5.95,-11.55 -8.89,-25.48 -8.89,-41.84l0 -19.42c0,-17.04 2.83,-31.59 8.55,-43.66 5.66,-12.06 13.93,-21.23 24.8,-27.52 10.81,-6.28 23.89,-9.46 39.13,-9.46 14.38,0 26.67,3.62 36.86,10.76 10.14,7.19 17.89,17.61 23.27,31.2 5.38,13.59 8.04,29.95 8.04,48.98l0 11.27 -116.08 0 0 -27.24 83.91 0 0 0c-1.02,-14.04 -4.64,-24.97 -10.87,-32.73 -6.23,-7.81 -14.61,-11.72 -25.14,-11.72 -12.8,0 -22.76,4.19 -29.78,12.63 -7.02,8.38 -10.53,20.27 -10.53,35.67l0 21.86c0,14.27 3.79,25.25 11.27,32.84 7.53,7.64 18.23,11.49 32.05,11.49 6.85,0 13.65,-1.42 20.38,-4.19 6.74,-2.72 12.8,-6.63 18.12,-11.61l0 0 22.2 22.25 0 0c-8.49,8.15 -18.06,14.49 -28.71,18.97 -10.59,4.47 -21.29,6.74 -31.99,6.74zm172.53 0c-10.19,0 -19.7,-1.02 -28.59,-3 -8.95,-1.98 -17.27,-4.98 -24.97,-8.95 -7.76,-3.96 -14.89,-8.95 -21.4,-14.95l0 0 20.04 -24.69 0 0c9.29,7.08 18.52,12.4 27.75,15.91 9.17,3.57 18.23,5.32 27.18,5.32 13.36,0 23.44,-2.1 30.12,-6.23 6.68,-4.13 10.02,-10.36 10.02,-18.69 0,-5.49 -1.81,-9.68 -5.49,-12.4 -3.62,-2.77 -8.15,-4.64 -13.59,-5.61 -5.44,-0.91 -13.02,-1.76 -22.88,-2.55 -0.91,0 -1.81,0 -2.83,-0.06 -1.02,-0.06 -1.93,-0.17 -2.83,-0.28 -0.45,0 -0.85,0 -1.3,-0.06 -0.45,-0.06 -0.91,-0.11 -1.36,-0.11 -11.15,-0.85 -20.61,-2.49 -28.37,-4.87 -7.7,-2.38 -14.16,-6.85 -19.31,-13.36 -5.15,-6.51 -7.7,-15.85 -7.7,-28.03 0,-12.17 2.49,-22.31 7.48,-30.35 4.93,-8.1 12.34,-14.16 22.19,-18.18 9.85,-4.02 22.2,-6.06 37.03,-6.06 8.95,0 17.5,0.85 25.59,2.49 8.15,1.64 15.91,4.13 23.33,7.36 7.42,3.28 14.55,7.42 21.4,12.4l0 0 -20.44 24.69 0 0c-8.61,-5.55 -17.1,-9.68 -25.42,-12.46 -8.38,-2.72 -16.53,-4.13 -24.46,-4.13 -11.55,0 -20.16,1.98 -25.93,5.89 -5.72,3.91 -8.61,9.8 -8.61,17.67 0,4.64 1.64,8.15 4.93,10.47 3.23,2.32 7.36,3.85 12.34,4.64 4.98,0.74 12.06,1.41 21.23,1.98 0.68,0.11 1.36,0.17 2.04,0.17 0.74,0 1.47,0.06 2.26,0.17 0.34,0 0.68,0 1.02,0 0.28,0 0.62,0.06 0.96,0.17 12.06,0.74 22.31,2.38 30.8,4.81 8.44,2.43 15.57,7.25 21.29,14.44 5.78,7.19 8.61,17.55 8.61,31.14 0,12.4 -2.6,22.65 -7.93,30.8 -5.32,8.1 -13.31,14.21 -24.01,18.35 -10.64,4.08 -24.06,6.11 -40.2,6.11z"/>
  </g>
 </g>
</svg>
