<svg xmlns="http://www.w3.org/2000/svg" xmlns:xlink="http://www.w3.org/1999/xlink" width="755.906" height="566.929" version="1.1" viewBox="0 0 7457.13 5592.85" xml:space="preserve" style="shape-rendering:geometricPrecision;text-rendering:geometricPrecision;image-rendering:optimizeQuality;fill-rule:evenodd;clip-rule:evenodd"><defs><style type="text/css">.fil2{fill:#c8c8cc}.fil1{fill:#dbdbdd}.fil0{fill:#efeff0}.fil3{fill:#c8c8cc;fill-rule:nonzero}</style></defs><g id="Layer_x0020_1"><metadata id="CorelCorpID_0Corel-Layer"/><g id="_2158678963280"><rect width="7457.13" height="5592.85" class="fil0"/><path d="M3471.86 2010.21c-3.17,-12.38 4.68,-4.11 -9.53,-20.99 76.97,-10.6 155.94,-0.71 217.16,29.96 81.77,40.97 103.91,93.09 138.95,109.38 16.36,29.14 39.1,46.55 63.6,70.34 22.48,21.83 42.48,49.49 67.21,59.6 17.8,35.45 50.91,57.98 79.47,86.7 23.49,23.61 56.36,74.96 97.99,72.85 21.98,-32.45 15.25,-179.63 2.11,-214.21 1.07,-27.58 -4.25,-46.47 -10.29,-70.68 -2.54,-10.19 -4.32,-19.86 -8.52,-31.09 -9.97,-26.7 -5.01,-18.08 -19.42,-32.41 -3.01,-97.08 -155.69,-236.17 -211.81,-274.37 -120.39,-81.97 -221.97,-103.21 -395.18,-103.16 -82.39,0.01 -440.77,-9.54 -491.92,6.56 -53.04,16.72 -101.44,84.27 -69.28,157.31 12.58,28.58 99.69,113.31 122.25,129.91l203.49 201.6 98.14 97.79 154.26 156.02 155.05 154.96 163.71 163.02c37.21,57.86 93.95,79.53 84.44,199.93l-21.96 82.17c-19.34,13.68 -32.04,39.42 -57.06,59.25 -26.32,20.85 -54.65,25.12 -71.23,42.66 -71.11,-9.08 -98.67,6.55 -160.02,-29.5 -19.52,-11.47 -33.05,-22.63 -48.84,-40.63 -10.12,-11.54 -25.53,-40.19 -33.97,-44.87 -10.19,-45.09 -14.12,-70.92 -18.64,-121.86 18.99,-36.27 16.71,-58.48 44.24,-93.88 12.08,-15.53 55.75,-60.64 19.87,-88.92 -11.07,-23.83 -109.68,-125.08 -131.9,-140.77 -45.51,-32.14 -75.3,-6.55 -97.61,20.15 -20.9,25 -41.26,48.69 -58.41,83.08 -33.95,49.91 -46.49,104.53 -65.75,175.43 2.75,42.22 -11.58,114.3 6.02,165.43 8.87,25.77 0.94,7.11 9.11,18.12 -2.98,32.1 6.69,53.06 19.48,83.35 3.63,8.6 12.81,30.1 14.74,33.67 12.73,23.49 5.7,14.91 23.57,28.64 5.28,38.4 71.92,107.74 105.13,125.68 3.87,9.98 -4.19,0.1 11.67,15.26 142.64,136.47 490.44,141.11 619.57,-7.33 50.97,-33.43 152.76,-156.34 154.3,-221.68 66.54,-87.43 22.73,-256.42 -5.44,-354.2 -21.24,-66.59 -91.32,-158.22 -130.45,-183.96l-164 -163.31 -145.75 -146.45c-19.43,-28.75 -70.15,-81.34 -100.58,-97.89 -11.6,-27.08 -43.7,-51.15 -68.06,-75.29 -26.93,-26.68 -45.98,-55.37 -79.89,-71.32z" class="fil1"/><g><path d="M2894.59 3709.01c-0.81,-3.17 1.2,-1.05 -2.44,-5.38 19.72,-2.71 39.96,-0.18 55.64,7.68 20.95,10.5 26.62,23.85 35.6,28.02 4.19,7.47 10.02,11.93 16.29,18.02 5.76,5.6 10.88,12.68 17.22,15.27 4.56,9.08 13.04,14.85 20.36,22.21 6.02,6.05 14.44,19.21 25.1,18.67 5.63,-8.31 3.91,-46.02 0.54,-54.88 0.28,-7.07 -1.09,-11.91 -2.63,-18.11 -0.65,-2.61 -1.11,-5.09 -2.18,-7.96 -2.55,-6.84 -1.29,-4.63 -4.97,-8.3 -0.77,-24.87 -39.89,-60.51 -54.27,-70.3 -30.85,-21 -56.87,-26.44 -101.25,-26.43 -21.11,0 -112.93,-2.45 -126.03,1.68 -13.59,4.28 -25.99,21.59 -17.75,40.31 3.23,7.32 25.54,29.03 31.32,33.28l52.14 51.65 25.14 25.06 39.52 39.97 39.72 39.7 41.94 41.77c9.53,14.82 24.07,20.37 21.63,51.22l-5.63 21.05c-4.96,3.5 -8.21,10.1 -14.62,15.18 -6.74,5.34 -14,6.44 -18.25,10.93 -18.22,-2.32 -25.28,1.68 -41,-7.56 -5,-2.94 -8.47,-5.8 -12.51,-10.41 -2.59,-2.96 -6.54,-10.29 -8.71,-11.5 -2.61,-11.55 -3.62,-18.17 -4.78,-31.22 4.87,-9.29 4.28,-14.98 11.33,-24.05 3.09,-3.98 14.28,-15.54 5.09,-22.78 -2.83,-6.11 -28.1,-32.05 -33.79,-36.07 -11.66,-8.23 -19.29,-1.68 -25.01,5.16 -5.35,6.41 -10.57,12.47 -14.97,21.29 -8.7,12.79 -11.91,26.78 -16.85,44.94 0.7,10.82 -2.96,29.28 1.54,42.38 2.27,6.6 0.24,1.82 2.33,4.64 -0.76,8.22 1.72,13.59 4.99,21.35 0.93,2.2 3.28,7.71 3.78,8.62 3.26,6.02 1.46,3.82 6.04,7.34 1.35,9.84 18.43,27.6 26.94,32.2 0.99,2.55 -1.07,0.02 2.99,3.91 36.54,34.97 125.65,36.16 158.73,-1.88 13.06,-8.56 39.14,-40.05 39.53,-56.79 17.05,-22.4 5.82,-65.7 -1.39,-90.75 -5.44,-17.06 -23.4,-40.54 -33.42,-47.13l-42.02 -41.84 -37.34 -37.52c-4.98,-7.36 -17.97,-20.84 -25.77,-25.08 -2.97,-6.94 -11.19,-13.11 -17.44,-19.29 -6.9,-6.84 -11.78,-14.19 -20.47,-18.27z" class="fil2"/><path d="M3152.84 3824.75l34.8 0 0 249.26 -34.8 0 0 -249.26zm79.38 179.79c-11.01,0 -20.63,-2.62 -28.85,-7.93 -8.22,-5.3 -14.22,-12.82 -18.13,-22.49l2.39 -37.01c0,7.64 1.39,14.1 4.13,19.46 2.74,5.31 6.65,9.44 11.83,12.3 5.19,2.8 11.48,4.25 18.88,4.25 11.48,0 20.4,-3.5 26.75,-10.49 6.29,-6.99 9.44,-16.9 9.44,-29.66l0 -38.4c0,-12.94 -3.15,-23.02 -9.44,-30.19 -6.35,-7.17 -15.27,-10.78 -26.75,-10.78 -7.4,0 -13.7,1.4 -18.88,4.08 -5.19,2.74 -9.09,6.76 -11.83,12.06 -2.74,5.31 -4.13,11.66 -4.13,19.06l-3.56 -34.15c5.36,-10.37 12.35,-18.36 20.98,-24.01 8.68,-5.65 18.3,-8.45 28.85,-8.45 12.53,0 23.25,2.8 32.23,8.45 8.92,5.65 15.73,13.87 20.4,24.65 4.66,10.84 6.99,23.9 6.99,39.11l0 38.58c0,15.04 -2.39,27.92 -7.17,38.64 -4.78,10.66 -11.77,18.83 -21.04,24.48 -9.21,5.66 -20.23,8.45 -33.1,8.45zm178.8 0c-15.39,0 -28.5,-3.03 -39.46,-9.03 -10.89,-6.06 -19.28,-14.86 -25,-26.4 -5.77,-11.54 -8.63,-25.47 -8.63,-41.73l0 -28.85c0,-16.09 2.86,-29.84 8.63,-41.26 5.71,-11.42 14.1,-20.16 25,-26.11 10.96,-6 24.07,-8.97 39.46,-8.97 15.33,0 28.5,2.97 39.46,8.97 10.9,5.95 19.23,14.69 25,26.11 5.71,11.42 8.62,25.18 8.62,41.26l0 29.31c0,16.2 -2.91,30.01 -8.62,41.44 -5.77,11.42 -14.1,20.16 -25,26.23 -10.96,6 -24.13,9.03 -39.46,9.03zm0 -33.1c12.18,0 21.56,-3.85 28.27,-11.48 6.64,-7.64 9.97,-18.3 9.97,-32.11l0 -29.31c0,-13.81 -3.33,-24.42 -9.97,-31.94 -6.7,-7.52 -16.09,-11.31 -28.27,-11.31 -12.18,0 -21.62,3.78 -28.27,11.31 -6.64,7.52 -9.97,18.12 -9.97,31.94l0 29.31c0,13.81 3.32,24.47 9.97,32.11 6.64,7.63 16.09,11.48 28.27,11.48zm168.72 31.41c-14.33,0 -24.82,-3.97 -31.53,-11.89 -6.64,-7.93 -9.96,-19.58 -9.96,-35.09l0 -182.7 34.85 0 0 183.05c0,4.31 0.82,7.63 2.51,9.97 1.75,2.33 4.25,3.49 7.52,3.49l16.72 0 0 33.17 -20.1 0zm-59.79 -178.1l79.9 0 0 31.41 -79.9 0 0 -31.41zm234.63 0l34.62 0 0 177.23 -34.62 0 0 -177.23zm-72.09 107.76c0,12.36 3.21,21.97 9.5,28.73 6.29,6.76 15.21,10.2 26.75,10.2 11.36,0 20.16,-3.03 26.46,-9.09 6.23,-6 9.38,-14.63 9.38,-25.76l2.39 37.07c-3.67,8.74 -9.56,16.09 -17.78,22.03 -8.22,5.88 -18.24,8.86 -30.19,8.86 -19.58,0 -34.73,-6.29 -45.34,-18.89 -10.67,-12.59 -15.97,-30.31 -15.97,-53.15l0 -107.76 34.79 0 0 107.76zm159.68 -107.76l34.79 0 0 177.23 -34.79 0 0 -177.23zm107.58 69.82c0,-12.53 -3.26,-22.2 -9.79,-29.02 -6.47,-6.82 -15.56,-10.26 -27.27,-10.26 -11.42,0 -20.17,3.03 -26.4,9.09 -6.17,6 -9.32,14.51 -9.32,25.41l-3.56 -34.15c5.48,-10.66 12.59,-18.94 21.45,-24.77 8.8,-5.77 18.53,-8.68 29.25,-8.68 19.23,0 34.09,6.29 44.65,18.88 10.55,12.59 15.79,30.37 15.79,53.33l0 107.58 -34.8 0 0 -107.41zm160.33 109.97c-16.38,0 -30.42,-3.09 -42.02,-9.21 -11.6,-6.17 -20.46,-15.21 -26.52,-27.1 -6.12,-11.89 -9.15,-26.23 -9.15,-43.07l0 -19.99c0,-17.54 2.92,-32.52 8.8,-44.93 5.83,-12.42 14.34,-21.86 25.53,-28.33 11.13,-6.47 24.59,-9.73 40.27,-9.73 14.8,0 27.45,3.73 37.94,11.07 10.43,7.4 18.42,18.13 23.95,32.11 5.53,13.99 8.27,30.83 8.27,50.42l0 11.6 -119.47 0 0 -28.04 86.37 0 0 0c-1.05,-14.45 -4.78,-25.7 -11.19,-33.68 -6.41,-8.04 -15.04,-12.06 -25.87,-12.06 -13.17,0 -23.43,4.31 -30.66,12.99 -7.23,8.62 -10.84,20.87 -10.84,36.72l0 22.49c0,14.69 3.91,25.99 11.6,33.8 7.75,7.87 18.76,11.83 32.99,11.83 7.05,0 14.04,-1.46 20.98,-4.31 6.94,-2.8 13.17,-6.82 18.65,-11.95l0 0 22.85 22.9 0 0c-8.74,8.39 -18.59,14.92 -29.55,19.53 -10.89,4.6 -21.91,6.94 -32.92,6.94zm177.58 0c-10.49,0 -20.28,-1.05 -29.43,-3.09 -9.21,-2.04 -17.77,-5.13 -25.7,-9.21 -7.98,-4.08 -15.32,-9.21 -22.03,-15.38l0 0 20.63 -25.41 0 0c9.56,7.28 19.06,12.76 28.55,16.37 9.44,3.67 18.77,5.48 27.98,5.48 13.75,0 24.13,-2.16 31.01,-6.41 6.88,-4.25 10.31,-10.66 10.31,-19.23 0,-5.65 -1.86,-9.97 -5.65,-12.76 -3.73,-2.85 -8.39,-4.78 -13.99,-5.77 -5.6,-0.94 -13.41,-1.8 -23.55,-2.62 -0.94,0 -1.86,0 -2.91,-0.06 -1.05,-0.06 -1.98,-0.18 -2.92,-0.29 -0.47,0 -0.88,0 -1.34,-0.06 -0.46,-0.06 -0.93,-0.12 -1.39,-0.12 -11.48,-0.88 -21.22,-2.57 -29.2,-5.01 -7.92,-2.45 -14.57,-7.05 -19.87,-13.75 -5.3,-6.7 -7.92,-16.32 -7.92,-28.85 0,-12.53 2.56,-22.96 7.69,-31.23 5.07,-8.33 12.7,-14.57 22.84,-18.71 10.14,-4.14 22.84,-6.23 38.11,-6.23 9.21,0 18.01,0.88 26.34,2.57 8.39,1.69 16.38,4.25 24.01,7.57 7.64,3.38 14.98,7.64 22.03,12.77l0 0 -21.04 25.41 0 0c-8.86,-5.71 -17.6,-9.97 -26.17,-12.82 -8.62,-2.8 -17.02,-4.25 -25.18,-4.25 -11.89,0 -20.75,2.04 -26.69,6.06 -5.89,4.02 -8.86,10.08 -8.86,18.18 0,4.78 1.69,8.39 5.07,10.78 3.32,2.39 7.57,3.96 12.7,4.78 5.13,0.75 12.42,1.45 21.86,2.04 0.7,0.12 1.39,0.18 2.1,0.18 0.76,0 1.52,0.06 2.33,0.18 0.35,0 0.7,0 1.05,0 0.29,0 0.64,0.06 0.99,0.18 12.42,0.76 22.96,2.45 31.71,4.96 8.68,2.51 16.03,7.46 21.91,14.86 5.95,7.4 8.86,18.07 8.86,32.05 0,12.77 -2.68,23.31 -8.16,31.7 -5.48,8.34 -13.7,14.63 -24.71,18.89 -10.95,4.19 -24.77,6.29 -41.38,6.29z" class="fil3"/></g></g></g></svg>