<svg xmlns="http://www.w3.org/2000/svg" width="960" height="960" preserveAspectRatio="xMidYMid meet" version="1.0" viewBox="0 0 720 720"><metadata>Created by potrace 1.11, written by Peter Selinger 2001-2013</metadata><g fill="#000" stroke="none"><path d="M1967 6364 c-1 -1 -60 -4 -132 -8 -207 -10 -245 -21 -332 -100 -131 -118 -158 -321 -62 -464 18 -26 112 -126 211 -222 397 -388 2595 -2589 2628 -2630 19 -25 57 -72 85 -105 97 -116 118 -154 143 -262 20 -85 22 -224 4 -270 -6 -16 -21 -68 -33 -118 -21 -81 -29 -97 -78 -154 -99 -113 -141 -149 -224 -192 -45 -23 -94 -50 -108 -60 -20 -14 -39 -17 -85 -14 -32 2 -104 7 -159 10 -138 7 -170 16 -270 71 -87 48 -139 96 -215 199 -64 86 -68 96 -83 180 -42 232 -44 270 -14 341 13 32 30 77 37 99 21 64 67 138 132 209 26 29 58 120 51 147 -18 74 -380 467 -488 530 -87 50 -168 35 -247 -44 -137 -139 -285 -383 -349 -577 -65 -200 -78 -270 -83 -471 -5 -200 5 -303 37 -366 8 -15 15 -46 16 -68 2 -65 13 -105 56 -205 60 -140 75 -168 98 -187 12 -10 29 -34 36 -53 22 -55 50 -99 112 -175 57 -71 65 -79 153 -150 27 -22 72 -63 100 -91 153 -152 436 -273 726 -310 390 -49 778 14 1034 169 70 42 97 64 289 237 82 73 195 208 268 319 66 100 129 237 129 282 0 12 13 43 28 68 58 94 84 209 85 371 0 83 -8 190 -18 240 -3 14 -7 42 -10 64 -3 21 -7 41 -9 45 -2 3 -7 24 -10 45 -9 53 -41 182 -73 286 -32 107 -77 199 -162 325 -58 87 -136 168 -640 670 -315 313 -597 599 -626 635 -75 92 -182 199 -242 240 -28 19 -59 49 -68 67 -10 18 -63 77 -119 132 -55 54 -135 134 -176 176 -41 42 -94 88 -117 102 -24 14 -43 32 -43 42 0 9 -5 22 -12 29 -6 6 -8 15 -4 19 9 9 297 10 351 1 141 -23 227 -49 330 -101 100 -50 173 -105 297 -224 65 -62 122 -113 126 -113 5 0 23 -21 42 -46 38 -54 300 -316 348 -349 18 -12 49 -44 70 -71 61 -80 404 -418 444 -437 47 -22 85 -22 97 1 29 53 43 307 27 477 -6 66 -9 83 -21 145 -3 14 -8 54 -11 90 -10 117 -65 313 -100 351 -8 9 -21 46 -29 81 -7 35 -26 90 -42 123 -28 57 -91 164 -103 175 -3 3 -28 34 -55 70 -72 96 -296 314 -405 396 -276 206 -551 316 -875 349 -33 3 -80 8 -105 11 -83 9 -1543 26 -1553 18z" transform="translate(0.000000,720.000000) scale(0.100000,-0.100000)"/></g></svg>